<svg width="300" height="300" viewBox="0 0 300 300" fill="none" xmlns="http://www.w3.org/2000/svg">
  <!-- Defining a soft gradient background -->
  <defs>
    <linearGradient id="bgGradient" x1="0%" y1="0%" x2="100%" y2="100%">
      <stop offset="0%" style="stop-color:#E6F0FA;stop-opacity:1" />
      <stop offset="100%" style="stop-color:#D1E9FF;stop-opacity:1" />
    </linearGradient>
  </defs>

  <!-- Background circle -->
  <circle cx="150" cy="150" r="140" fill="url(#bgGradient)" />

  <!-- Pill shape -->
  <g transform="translate(100, 90) rotate(-45)">
    <rect x="0" y="0" width="100" height="40" rx="20" fill="#4A90E2" />
    <rect x="50" y="0" width="50" height="40" fill="#2E6BB8" />
    <circle cx="50" cy="20" r="10" fill="#FFFFFF" fill-opacity="0.3" />
  </g>

  <!-- Clock base -->
  <circle cx="150" cy="150" r="60" fill="#FFFFFF" stroke="#4A90E2" stroke-width="8" />

  <!-- Clock hands -->
  <g transform="translate(150, 150)">
    <!-- Hour hand -->
    <rect x="-3" y="-30" width="6" height="30" rx="3" fill="#2E6BB8" />
    <!-- Minute hand -->
    <rect x="-2" y="-40" width="4" height="40" rx="2" fill="#2E6BB8" transform="rotate(45)" />
    <!-- Center dot -->
    <circle cx="0" cy="0" r="4" fill="#4A90E2" />
  </g>

  <!-- Heart icon for health theme -->
  <path d="M150 220 C140 210, 130 200, 130 190 C130 180, 140 170, 150 170 C160 170, 170 180, 170 190 C170 200, 160 210, 150 220" fill="#FF6B6B" />

  <!-- Small decorative dots -->
  <circle cx="80" cy="80" r="5" fill="#4A90E2" fill-opacity="0.5" />
  <circle cx="220" cy="80" r="5" fill="#4A90E2" fill-opacity="0.5" />
  <circle cx="80" cy="220" r="5" fill="#4A90E2" fill-opacity="0.5" />
  <circle cx="220" cy="220" r="5" fill="#4A90E2" fill-opacity="0.5" />
</svg>